<svg xmlns="http://www.w3.org/2000/svg" xmlns:xlink="http://www.w3.org/1999/xlink" id="Layer_1" width="429.598" height="230.964" enable-background="new 0 0 429.598 230.964" overflow="visible" version="1.1" viewBox="0 0 429.598 230.964" xml:space="preserve"><rect width="60" height="75" x="369.098" y="95.464" fill="#FFF" stroke="#000"/><g><g><circle cx="385.598" cy="159.964" r="2.25" fill="#FFF" stroke="#000" stroke-width=".25"/><circle cx="392.348" cy="159.964" r="2.25" fill="#FFF" stroke="#000" stroke-width=".25"/><circle cx="399.098" cy="159.964" r="2.25" fill="#FFF" stroke="#000" stroke-width=".25"/><circle cx="405.848" cy="159.964" r="2.25" fill="#FFF" stroke="#000" stroke-width=".25"/><circle cx="412.598" cy="159.964" r="2.25" fill="#FFF" stroke="#000" stroke-width=".25"/></g><g><circle cx="378.848" cy="141.964" r="2.25" fill="#FFF" stroke="#000" stroke-width=".25"/><circle cx="385.598" cy="141.964" r="2.25" fill="#FFF" stroke="#000" stroke-width=".25"/><circle cx="392.348" cy="141.964" r="2.25" fill="#FFF" stroke="#000" stroke-width=".25"/><circle cx="399.098" cy="141.964" r="2.25" fill="#FFF" stroke="#000" stroke-width=".25"/><circle cx="405.848" cy="141.964" r="2.25" fill="#FFF" stroke="#000" stroke-width=".25"/><circle cx="412.598" cy="141.964" r="2.25" fill="#FFF" stroke="#000" stroke-width=".25"/><circle cx="419.348" cy="141.964" r="2.25" fill="#FFF" stroke="#000" stroke-width=".25"/></g><g><circle cx="375.473" cy="132.964" r="2.25" fill="#FFF" stroke="#000" stroke-width=".25"/><circle cx="382.223" cy="132.964" r="2.25" fill="#FFF" stroke="#000" stroke-width=".25"/><circle cx="388.973" cy="132.964" r="2.25" fill="#FFF" stroke="#000" stroke-width=".25"/><circle cx="395.723" cy="132.964" r="2.25" fill="#FFF" stroke="#000" stroke-width=".25"/><circle cx="402.473" cy="132.964" r="2.25" fill="#FFF" stroke="#000" stroke-width=".25"/><circle cx="409.223" cy="132.964" r="2.25" fill="#FFF" stroke="#000" stroke-width=".25"/><circle cx="415.973" cy="132.964" r="2.25" fill="#FFF" stroke="#000" stroke-width=".25"/><circle cx="422.723" cy="132.964" r="2.25" fill="#FFF" stroke="#000" stroke-width=".25"/></g><g><circle cx="378.848" cy="123.964" r="2.25" fill="#FFF" stroke="#000" stroke-width=".25"/><circle cx="385.598" cy="123.964" r="2.25" fill="#FFF" stroke="#000" stroke-width=".25"/><circle cx="392.348" cy="123.964" r="2.25" fill="#FFF" stroke="#000" stroke-width=".25"/><circle cx="399.098" cy="123.964" r="2.25" fill="#FFF" stroke="#000" stroke-width=".25"/><circle cx="405.848" cy="123.964" r="2.25" fill="#FFF" stroke="#000" stroke-width=".25"/><circle cx="412.598" cy="123.964" r="2.25" fill="#FFF" stroke="#000" stroke-width=".25"/><circle cx="419.348" cy="123.964" r="2.25" fill="#FFF" stroke="#000" stroke-width=".25"/></g><g><circle cx="382.223" cy="150.964" r="2.25" fill="#FFF" stroke="#000" stroke-width=".25"/><circle cx="388.973" cy="150.964" r="2.25" fill="#FFF" stroke="#000" stroke-width=".25"/><circle cx="395.723" cy="150.964" r="2.25" fill="#FFF" stroke="#000" stroke-width=".25"/><circle cx="402.473" cy="150.964" r="2.25" fill="#FFF" stroke="#000" stroke-width=".25"/><circle cx="409.223" cy="150.964" r="2.25" fill="#FFF" stroke="#000" stroke-width=".25"/><circle cx="415.973" cy="150.964" r="2.25" fill="#FFF" stroke="#000" stroke-width=".25"/></g><g><circle cx="382.223" cy="114.964" r="2.25" fill="#FFF" stroke="#000" stroke-width=".25"/><circle cx="388.973" cy="114.964" r="2.25" fill="#FFF" stroke="#000" stroke-width=".25"/><circle cx="395.723" cy="114.964" r="2.25" fill="#FFF" stroke="#000" stroke-width=".25"/><circle cx="402.473" cy="114.964" r="2.25" fill="#FFF" stroke="#000" stroke-width=".25"/><circle cx="409.223" cy="114.964" r="2.25" fill="#FFF" stroke="#000" stroke-width=".25"/><circle cx="415.973" cy="114.964" r="2.25" fill="#FFF" stroke="#000" stroke-width=".25"/></g><g><circle cx="385.598" cy="105.964" r="2.25" fill="#FFF" stroke="#000" stroke-width=".25"/><circle cx="392.348" cy="105.964" r="2.25" fill="#FFF" stroke="#000" stroke-width=".25"/><circle cx="399.098" cy="105.964" r="2.25" fill="#FFF" stroke="#000" stroke-width=".25"/><circle cx="405.848" cy="105.964" r="2.25" fill="#FFF" stroke="#000" stroke-width=".25"/><circle cx="412.598" cy="105.964" r="2.25" fill="#FFF" stroke="#000" stroke-width=".25"/></g></g><g><g><g><line x1="0" x2="30" y1="212.464" y2="212.464" fill="none" stroke="#000"/><path d="M29.49,212.464l-1.096-1.802l0.062-0.04l2.938,1.166c1.023,0.226,2.047,0.45,3.07,0.676 c-1.023,0.225-2.047,0.45-3.07,0.676l-2.938,1.166l-0.062-0.03L29.49,212.464z"/></g></g></g><rect width="60" height="36" x="34.947" y="194.464" fill="none" stroke="#000"/><text transform="matrix(1 0 0 1 49.4478 209.4248)"><tspan x="0" y="0" font-family="'TimesNewRomanPSMT'" font-size="9">Multiple</tspan><tspan x="-4.248" y="10.799" font-family="'TimesNewRomanPSMT'" font-size="9">Imputation</tspan></text><g><rect width="340" height="36" x="89.098" y="29.464" fill="none" stroke="#000"/><text font-family="'TimesNewRomanPSMT'" font-size="9" transform="matrix(1 0 0 1 241.3535 49.8242)">Ensemble</text></g><rect width="60" height="75" x="299.098" y="95.464" fill="#FFF" stroke="#000"/><g><g><circle cx="315.598" cy="159.964" r="2.25" fill="#FFF" stroke="#000" stroke-width=".25"/><circle cx="322.348" cy="159.964" r="2.25" fill="#FFF" stroke="#000" stroke-width=".25"/><circle cx="329.098" cy="159.964" r="2.25" fill="#FFF" stroke="#000" stroke-width=".25"/><circle cx="335.848" cy="159.964" r="2.25" fill="#FFF" stroke="#000" stroke-width=".25"/><circle cx="342.598" cy="159.964" r="2.25" fill="#FFF" stroke="#000" stroke-width=".25"/></g><g><circle cx="308.848" cy="141.964" r="2.25" fill="#FFF" stroke="#000" stroke-width=".25"/><circle cx="315.598" cy="141.964" r="2.25" fill="#FFF" stroke="#000" stroke-width=".25"/><circle cx="322.348" cy="141.964" r="2.25" fill="#FFF" stroke="#000" stroke-width=".25"/><circle cx="329.098" cy="141.964" r="2.25" fill="#FFF" stroke="#000" stroke-width=".25"/><circle cx="335.848" cy="141.964" r="2.25" fill="#FFF" stroke="#000" stroke-width=".25"/><circle cx="342.598" cy="141.964" r="2.25" fill="#FFF" stroke="#000" stroke-width=".25"/><circle cx="349.348" cy="141.964" r="2.25" fill="#FFF" stroke="#000" stroke-width=".25"/></g><g><circle cx="305.473" cy="132.964" r="2.25" fill="#FFF" stroke="#000" stroke-width=".25"/><circle cx="312.223" cy="132.964" r="2.25" fill="#FFF" stroke="#000" stroke-width=".25"/><circle cx="318.973" cy="132.964" r="2.25" fill="#FFF" stroke="#000" stroke-width=".25"/><circle cx="325.723" cy="132.964" r="2.25" fill="#FFF" stroke="#000" stroke-width=".25"/><circle cx="332.473" cy="132.964" r="2.25" fill="#FFF" stroke="#000" stroke-width=".25"/><circle cx="339.223" cy="132.964" r="2.25" fill="#FFF" stroke="#000" stroke-width=".25"/><circle cx="345.973" cy="132.964" r="2.25" fill="#FFF" stroke="#000" stroke-width=".25"/><circle cx="352.723" cy="132.964" r="2.25" fill="#FFF" stroke="#000" stroke-width=".25"/></g><g><circle cx="308.848" cy="123.964" r="2.25" fill="#FFF" stroke="#000" stroke-width=".25"/><circle cx="315.598" cy="123.964" r="2.25" fill="#FFF" stroke="#000" stroke-width=".25"/><circle cx="322.348" cy="123.964" r="2.25" fill="#FFF" stroke="#000" stroke-width=".25"/><circle cx="329.098" cy="123.964" r="2.25" fill="#FFF" stroke="#000" stroke-width=".25"/><circle cx="335.848" cy="123.964" r="2.25" fill="#FFF" stroke="#000" stroke-width=".25"/><circle cx="342.598" cy="123.964" r="2.25" fill="#FFF" stroke="#000" stroke-width=".25"/><circle cx="349.348" cy="123.964" r="2.25" fill="#FFF" stroke="#000" stroke-width=".25"/></g><g><circle cx="312.223" cy="150.964" r="2.25" fill="#FFF" stroke="#000" stroke-width=".25"/><circle cx="318.973" cy="150.964" r="2.25" fill="#FFF" stroke="#000" stroke-width=".25"/><circle cx="325.723" cy="150.964" r="2.25" fill="#FFF" stroke="#000" stroke-width=".25"/><circle cx="332.473" cy="150.964" r="2.25" fill="#FFF" stroke="#000" stroke-width=".25"/><circle cx="339.223" cy="150.964" r="2.25" fill="#FFF" stroke="#000" stroke-width=".25"/><circle cx="345.973" cy="150.964" r="2.25" fill="#FFF" stroke="#000" stroke-width=".25"/></g><g><circle cx="312.223" cy="114.964" r="2.25" fill="#FFF" stroke="#000" stroke-width=".25"/><circle cx="318.973" cy="114.964" r="2.25" fill="#FFF" stroke="#000" stroke-width=".25"/><circle cx="325.723" cy="114.964" r="2.25" fill="#FFF" stroke="#000" stroke-width=".25"/><circle cx="332.473" cy="114.964" r="2.25" fill="#FFF" stroke="#000" stroke-width=".25"/><circle cx="339.223" cy="114.964" r="2.25" fill="#FFF" stroke="#000" stroke-width=".25"/><circle cx="345.973" cy="114.964" r="2.25" fill="#FFF" stroke="#000" stroke-width=".25"/></g><g><circle cx="315.598" cy="105.964" r="2.25" fill="#FFF" stroke="#000" stroke-width=".25"/><circle cx="322.348" cy="105.964" r="2.25" fill="#FFF" stroke="#000" stroke-width=".25"/><circle cx="329.098" cy="105.964" r="2.25" fill="#FFF" stroke="#000" stroke-width=".25"/><circle cx="335.848" cy="105.964" r="2.25" fill="#FFF" stroke="#000" stroke-width=".25"/><circle cx="342.598" cy="105.964" r="2.25" fill="#FFF" stroke="#000" stroke-width=".25"/></g></g><g><g><path fill="none" stroke="#000" d="M329.098,169.464"/></g><g><path fill="none" stroke="#000" d="M329.098,194.464"/></g></g><rect width="60" height="75" x="229.098" y="95.464" fill="#FFF" stroke="#000"/><g><g><circle cx="245.598" cy="159.964" r="2.25" fill="#FFF" stroke="#000" stroke-width=".25"/><circle cx="252.348" cy="159.964" r="2.25" fill="#FFF" stroke="#000" stroke-width=".25"/><circle cx="259.098" cy="159.964" r="2.25" fill="#FFF" stroke="#000" stroke-width=".25"/><circle cx="265.848" cy="159.964" r="2.25" fill="#FFF" stroke="#000" stroke-width=".25"/><circle cx="272.598" cy="159.964" r="2.25" fill="#FFF" stroke="#000" stroke-width=".25"/></g><g><circle cx="238.848" cy="141.964" r="2.25" fill="#FFF" stroke="#000" stroke-width=".25"/><circle cx="245.598" cy="141.964" r="2.25" fill="#FFF" stroke="#000" stroke-width=".25"/><circle cx="252.348" cy="141.964" r="2.25" fill="#FFF" stroke="#000" stroke-width=".25"/><circle cx="259.098" cy="141.964" r="2.25" fill="#FFF" stroke="#000" stroke-width=".25"/><circle cx="265.848" cy="141.964" r="2.25" fill="#FFF" stroke="#000" stroke-width=".25"/><circle cx="272.598" cy="141.964" r="2.25" fill="#FFF" stroke="#000" stroke-width=".25"/><circle cx="279.348" cy="141.964" r="2.25" fill="#FFF" stroke="#000" stroke-width=".25"/></g><g><circle cx="235.473" cy="132.964" r="2.25" fill="#FFF" stroke="#000" stroke-width=".25"/><circle cx="242.223" cy="132.964" r="2.25" fill="#FFF" stroke="#000" stroke-width=".25"/><circle cx="248.973" cy="132.964" r="2.25" fill="#FFF" stroke="#000" stroke-width=".25"/><circle cx="255.723" cy="132.964" r="2.25" fill="#FFF" stroke="#000" stroke-width=".25"/><circle cx="262.473" cy="132.964" r="2.25" fill="#FFF" stroke="#000" stroke-width=".25"/><circle cx="269.223" cy="132.964" r="2.25" fill="#FFF" stroke="#000" stroke-width=".25"/><circle cx="275.973" cy="132.964" r="2.25" fill="#FFF" stroke="#000" stroke-width=".25"/><circle cx="282.723" cy="132.964" r="2.25" fill="#FFF" stroke="#000" stroke-width=".25"/></g><g><circle cx="238.848" cy="123.964" r="2.25" fill="#FFF" stroke="#000" stroke-width=".25"/><circle cx="245.598" cy="123.964" r="2.25" fill="#FFF" stroke="#000" stroke-width=".25"/><circle cx="252.348" cy="123.964" r="2.25" fill="#FFF" stroke="#000" stroke-width=".25"/><circle cx="259.098" cy="123.964" r="2.25" fill="#FFF" stroke="#000" stroke-width=".25"/><circle cx="265.848" cy="123.964" r="2.25" fill="#FFF" stroke="#000" stroke-width=".25"/><circle cx="272.598" cy="123.964" r="2.25" fill="#FFF" stroke="#000" stroke-width=".25"/><circle cx="279.348" cy="123.964" r="2.25" fill="#FFF" stroke="#000" stroke-width=".25"/></g><g><circle cx="242.223" cy="150.964" r="2.25" fill="#FFF" stroke="#000" stroke-width=".25"/><circle cx="248.973" cy="150.964" r="2.25" fill="#FFF" stroke="#000" stroke-width=".25"/><circle cx="255.723" cy="150.964" r="2.25" fill="#FFF" stroke="#000" stroke-width=".25"/><circle cx="262.473" cy="150.964" r="2.25" fill="#FFF" stroke="#000" stroke-width=".25"/><circle cx="269.223" cy="150.964" r="2.25" fill="#FFF" stroke="#000" stroke-width=".25"/><circle cx="275.973" cy="150.964" r="2.25" fill="#FFF" stroke="#000" stroke-width=".25"/></g><g><circle cx="242.223" cy="114.964" r="2.25" fill="#FFF" stroke="#000" stroke-width=".25"/><circle cx="248.973" cy="114.964" r="2.25" fill="#FFF" stroke="#000" stroke-width=".25"/><circle cx="255.723" cy="114.964" r="2.25" fill="#FFF" stroke="#000" stroke-width=".25"/><circle cx="262.473" cy="114.964" r="2.25" fill="#FFF" stroke="#000" stroke-width=".25"/><circle cx="269.223" cy="114.964" r="2.25" fill="#FFF" stroke="#000" stroke-width=".25"/><circle cx="275.973" cy="114.964" r="2.25" fill="#FFF" stroke="#000" stroke-width=".25"/></g><g><circle cx="245.598" cy="105.964" r="2.25" fill="#FFF" stroke="#000" stroke-width=".25"/><circle cx="252.348" cy="105.964" r="2.25" fill="#FFF" stroke="#000" stroke-width=".25"/><circle cx="259.098" cy="105.964" r="2.25" fill="#FFF" stroke="#000" stroke-width=".25"/><circle cx="265.848" cy="105.964" r="2.25" fill="#FFF" stroke="#000" stroke-width=".25"/><circle cx="272.598" cy="105.964" r="2.25" fill="#FFF" stroke="#000" stroke-width=".25"/></g></g><rect width="60" height="75" x="159.098" y="95.464" fill="#FFF" stroke="#000"/><g><g><circle cx="175.598" cy="159.964" r="2.25" fill="#FFF" stroke="#000" stroke-width=".25"/><circle cx="182.348" cy="159.964" r="2.25" fill="#FFF" stroke="#000" stroke-width=".25"/><circle cx="189.098" cy="159.964" r="2.25" fill="#FFF" stroke="#000" stroke-width=".25"/><circle cx="195.848" cy="159.964" r="2.25" fill="#FFF" stroke="#000" stroke-width=".25"/><circle cx="202.598" cy="159.964" r="2.25" fill="#FFF" stroke="#000" stroke-width=".25"/></g><g><circle cx="168.848" cy="141.964" r="2.25" fill="#FFF" stroke="#000" stroke-width=".25"/><circle cx="175.598" cy="141.964" r="2.25" fill="#FFF" stroke="#000" stroke-width=".25"/><circle cx="182.348" cy="141.964" r="2.25" fill="#FFF" stroke="#000" stroke-width=".25"/><circle cx="189.098" cy="141.964" r="2.25" fill="#FFF" stroke="#000" stroke-width=".25"/><circle cx="195.848" cy="141.964" r="2.25" fill="#FFF" stroke="#000" stroke-width=".25"/><circle cx="202.598" cy="141.964" r="2.25" fill="#FFF" stroke="#000" stroke-width=".25"/><circle cx="209.348" cy="141.964" r="2.25" fill="#FFF" stroke="#000" stroke-width=".25"/></g><g><circle cx="165.473" cy="132.964" r="2.25" fill="#FFF" stroke="#000" stroke-width=".25"/><circle cx="172.223" cy="132.964" r="2.25" fill="#FFF" stroke="#000" stroke-width=".25"/><circle cx="178.973" cy="132.964" r="2.25" fill="#FFF" stroke="#000" stroke-width=".25"/><circle cx="185.723" cy="132.964" r="2.25" fill="#FFF" stroke="#000" stroke-width=".25"/><circle cx="192.473" cy="132.964" r="2.25" fill="#FFF" stroke="#000" stroke-width=".25"/><circle cx="199.223" cy="132.964" r="2.25" fill="#FFF" stroke="#000" stroke-width=".25"/><circle cx="205.973" cy="132.964" r="2.25" fill="#FFF" stroke="#000" stroke-width=".25"/><circle cx="212.723" cy="132.964" r="2.25" fill="#FFF" stroke="#000" stroke-width=".25"/></g><g><circle cx="168.848" cy="123.964" r="2.25" fill="#FFF" stroke="#000" stroke-width=".25"/><circle cx="175.598" cy="123.964" r="2.25" fill="#FFF" stroke="#000" stroke-width=".25"/><circle cx="182.348" cy="123.964" r="2.25" fill="#FFF" stroke="#000" stroke-width=".25"/><circle cx="189.098" cy="123.964" r="2.25" fill="#FFF" stroke="#000" stroke-width=".25"/><circle cx="195.848" cy="123.964" r="2.25" fill="#FFF" stroke="#000" stroke-width=".25"/><circle cx="202.598" cy="123.964" r="2.25" fill="#FFF" stroke="#000" stroke-width=".25"/><circle cx="209.348" cy="123.964" r="2.25" fill="#FFF" stroke="#000" stroke-width=".25"/></g><g><circle cx="172.223" cy="150.964" r="2.25" fill="#FFF" stroke="#000" stroke-width=".25"/><circle cx="178.973" cy="150.964" r="2.25" fill="#FFF" stroke="#000" stroke-width=".25"/><circle cx="185.723" cy="150.964" r="2.25" fill="#FFF" stroke="#000" stroke-width=".25"/><circle cx="192.473" cy="150.964" r="2.25" fill="#FFF" stroke="#000" stroke-width=".25"/><circle cx="199.223" cy="150.964" r="2.25" fill="#FFF" stroke="#000" stroke-width=".25"/><circle cx="205.973" cy="150.964" r="2.25" fill="#FFF" stroke="#000" stroke-width=".25"/></g><g><circle cx="172.223" cy="114.964" r="2.25" fill="#FFF" stroke="#000" stroke-width=".25"/><circle cx="178.973" cy="114.964" r="2.25" fill="#FFF" stroke="#000" stroke-width=".25"/><circle cx="185.723" cy="114.964" r="2.25" fill="#FFF" stroke="#000" stroke-width=".25"/><circle cx="192.473" cy="114.964" r="2.25" fill="#FFF" stroke="#000" stroke-width=".25"/><circle cx="199.223" cy="114.964" r="2.25" fill="#FFF" stroke="#000" stroke-width=".25"/><circle cx="205.973" cy="114.964" r="2.25" fill="#FFF" stroke="#000" stroke-width=".25"/></g><g><circle cx="175.598" cy="105.964" r="2.25" fill="#FFF" stroke="#000" stroke-width=".25"/><circle cx="182.348" cy="105.964" r="2.25" fill="#FFF" stroke="#000" stroke-width=".25"/><circle cx="189.098" cy="105.964" r="2.25" fill="#FFF" stroke="#000" stroke-width=".25"/><circle cx="195.848" cy="105.964" r="2.25" fill="#FFF" stroke="#000" stroke-width=".25"/><circle cx="202.598" cy="105.964" r="2.25" fill="#FFF" stroke="#000" stroke-width=".25"/></g></g><rect width="60" height="75" x="89.098" y="95.464" fill="#FFF" stroke="#000"/><g><g><circle cx="105.598" cy="159.964" r="2.25" fill="#FFF" stroke="#000" stroke-width=".25"/><circle cx="112.348" cy="159.964" r="2.25" fill="#FFF" stroke="#000" stroke-width=".25"/><circle cx="119.098" cy="159.964" r="2.25" fill="#FFF" stroke="#000" stroke-width=".25"/><circle cx="125.848" cy="159.964" r="2.25" fill="#FFF" stroke="#000" stroke-width=".25"/><circle cx="132.598" cy="159.964" r="2.25" fill="#FFF" stroke="#000" stroke-width=".25"/></g><g><circle cx="98.848" cy="141.964" r="2.25" fill="#FFF" stroke="#000" stroke-width=".25"/><circle cx="105.598" cy="141.964" r="2.25" fill="#FFF" stroke="#000" stroke-width=".25"/><circle cx="112.348" cy="141.964" r="2.25" fill="#FFF" stroke="#000" stroke-width=".25"/><circle cx="119.098" cy="141.964" r="2.25" fill="#FFF" stroke="#000" stroke-width=".25"/><circle cx="125.848" cy="141.964" r="2.25" fill="#FFF" stroke="#000" stroke-width=".25"/><circle cx="132.598" cy="141.964" r="2.25" fill="#FFF" stroke="#000" stroke-width=".25"/><circle cx="139.348" cy="141.964" r="2.25" fill="#FFF" stroke="#000" stroke-width=".25"/></g><g><circle cx="95.473" cy="132.964" r="2.25" fill="#FFF" stroke="#000" stroke-width=".25"/><circle cx="102.223" cy="132.964" r="2.25" fill="#FFF" stroke="#000" stroke-width=".25"/><circle cx="108.973" cy="132.964" r="2.25" fill="#FFF" stroke="#000" stroke-width=".25"/><circle cx="115.723" cy="132.964" r="2.25" fill="#FFF" stroke="#000" stroke-width=".25"/><circle cx="122.473" cy="132.964" r="2.25" fill="#FFF" stroke="#000" stroke-width=".25"/><circle cx="129.223" cy="132.964" r="2.25" fill="#FFF" stroke="#000" stroke-width=".25"/><circle cx="135.973" cy="132.964" r="2.25" fill="#FFF" stroke="#000" stroke-width=".25"/><circle cx="142.723" cy="132.964" r="2.25" fill="#FFF" stroke="#000" stroke-width=".25"/></g><g><circle cx="98.848" cy="123.964" r="2.25" fill="#FFF" stroke="#000" stroke-width=".25"/><circle cx="105.598" cy="123.964" r="2.25" fill="#FFF" stroke="#000" stroke-width=".25"/><circle cx="112.348" cy="123.964" r="2.25" fill="#FFF" stroke="#000" stroke-width=".25"/><circle cx="119.098" cy="123.964" r="2.25" fill="#FFF" stroke="#000" stroke-width=".25"/><circle cx="125.848" cy="123.964" r="2.25" fill="#FFF" stroke="#000" stroke-width=".25"/><circle cx="132.598" cy="123.964" r="2.25" fill="#FFF" stroke="#000" stroke-width=".25"/><circle cx="139.348" cy="123.964" r="2.25" fill="#FFF" stroke="#000" stroke-width=".25"/></g><g><circle cx="102.223" cy="150.964" r="2.25" fill="#FFF" stroke="#000" stroke-width=".25"/><circle cx="108.973" cy="150.964" r="2.25" fill="#FFF" stroke="#000" stroke-width=".25"/><circle cx="115.723" cy="150.964" r="2.25" fill="#FFF" stroke="#000" stroke-width=".25"/><circle cx="122.473" cy="150.964" r="2.25" fill="#FFF" stroke="#000" stroke-width=".25"/><circle cx="129.223" cy="150.964" r="2.25" fill="#FFF" stroke="#000" stroke-width=".25"/><circle cx="135.973" cy="150.964" r="2.25" fill="#FFF" stroke="#000" stroke-width=".25"/></g><g><circle cx="102.223" cy="114.964" r="2.25" fill="#FFF" stroke="#000" stroke-width=".25"/><circle cx="108.973" cy="114.964" r="2.25" fill="#FFF" stroke="#000" stroke-width=".25"/><circle cx="115.723" cy="114.964" r="2.25" fill="#FFF" stroke="#000" stroke-width=".25"/><circle cx="122.473" cy="114.964" r="2.25" fill="#FFF" stroke="#000" stroke-width=".25"/><circle cx="129.223" cy="114.964" r="2.25" fill="#FFF" stroke="#000" stroke-width=".25"/><circle cx="135.973" cy="114.964" r="2.25" fill="#FFF" stroke="#000" stroke-width=".25"/></g><g><circle cx="105.598" cy="105.964" r="2.25" fill="#FFF" stroke="#000" stroke-width=".25"/><circle cx="112.348" cy="105.964" r="2.25" fill="#FFF" stroke="#000" stroke-width=".25"/><circle cx="119.098" cy="105.964" r="2.25" fill="#FFF" stroke="#000" stroke-width=".25"/><circle cx="125.848" cy="105.964" r="2.25" fill="#FFF" stroke="#000" stroke-width=".25"/><circle cx="132.598" cy="105.964" r="2.25" fill="#FFF" stroke="#000" stroke-width=".25"/></g></g><g><polyline fill="none" stroke="#000" points="95 200.464 119 200.464 119 200.046 119 175.046"/><path d="M119,175.556l-1.802,1.096l-0.041-0.062l1.167-2.938c0.226-1.023,0.45-2.047,0.676-3.07c0.225,1.023,0.45,2.047,0.676,3.07 l1.167,2.938l-0.031,0.062L119,175.556z"/></g><g><polyline fill="none" stroke="#000" points="95 206.464 189 206.464 189 200.046 189 175.046"/><path d="M189,175.556l-1.802,1.096l-0.041-0.062l1.167-2.938c0.226-1.023,0.45-2.047,0.676-3.07c0.225,1.023,0.45,2.047,0.676,3.07 l1.167,2.938l-0.031,0.062L189,175.556z"/></g><g><polyline fill="none" stroke="#000" points="95 212.464 259 212.464 259 200.046 259 175.046"/><path d="M259,175.556l-1.802,1.096l-0.04-0.062l1.166-2.938c0.226-1.023,0.45-2.047,0.676-3.07c0.225,1.023,0.45,2.047,0.676,3.07 l1.166,2.938l-0.03,0.062L259,175.556z"/></g><g><polyline fill="none" stroke="#000" points="95 218.464 329 218.464 329 200.046 329 175.046"/><path d="M329,175.556l-1.802,1.096l-0.04-0.062l1.166-2.938c0.226-1.023,0.45-2.047,0.676-3.07c0.225,1.023,0.45,2.047,0.676,3.07 l1.166,2.938l-0.03,0.062L329,175.556z"/></g><g><polyline fill="none" stroke="#000" points="95 224.464 399 224.464 399 200.046 399 175.046"/><path d="M399,175.556l-1.802,1.096l-0.04-0.062l1.166-2.938c0.226-1.023,0.45-2.047,0.676-3.07c0.225,1.023,0.45,2.047,0.676,3.07 l1.166,2.938l-0.03,0.062L399,175.556z"/></g><g><line x1="119.098" x2="119.098" y1="95.464" y2="70.464" fill="none" stroke="#000"/><path d="M119.098,70.975l-1.802,1.095l-0.041-0.061l1.167-2.938c0.226-1.023,0.45-2.047,0.676-3.071 c0.225,1.023,0.45,2.047,0.676,3.071l1.167,2.938l-0.031,0.061L119.098,70.975z"/></g><g><line x1="189.098" x2="189.098" y1="95.464" y2="70.464" fill="none" stroke="#000"/><path d="M189.098,70.975l-1.802,1.095l-0.041-0.061l1.167-2.938c0.226-1.023,0.45-2.047,0.676-3.071 c0.225,1.023,0.45,2.047,0.676,3.071l1.167,2.938l-0.031,0.061L189.098,70.975z"/></g><g><line x1="259.098" x2="259.098" y1="95.464" y2="70.464" fill="none" stroke="#000"/><path d="M259.098,70.975l-1.802,1.095l-0.04-0.061l1.166-2.938c0.226-1.023,0.45-2.047,0.676-3.071 c0.225,1.023,0.45,2.047,0.676,3.071l1.166,2.938l-0.03,0.061L259.098,70.975z"/></g><g><line x1="329.098" x2="329.098" y1="95.464" y2="70.464" fill="none" stroke="#000"/><path d="M329.098,70.975l-1.802,1.095l-0.04-0.061l1.166-2.938c0.226-1.023,0.45-2.047,0.676-3.071 c0.225,1.023,0.45,2.047,0.676,3.071l1.166,2.938l-0.03,0.061L329.098,70.975z"/></g><g><line x1="399.098" x2="399.098" y1="95.464" y2="70.464" fill="none" stroke="#000"/><path d="M399.098,70.975l-1.802,1.095l-0.04-0.061l1.166-2.938c0.226-1.023,0.45-2.047,0.676-3.071 c0.225,1.023,0.45,2.047,0.676,3.071l1.166,2.938l-0.03,0.061L399.098,70.975z"/></g><g><line x1="259.098" x2="259.098" y1="29.464" y2="4.464" fill="none" stroke="#000"/><path d="M259.098,4.975l-1.802,1.095l-0.04-0.061l1.166-2.938c0.226-1.023,0.45-2.047,0.676-3.071 c0.225,1.023,0.45,2.047,0.676,3.071l1.166,2.938l-0.03,0.061L259.098,4.975z"/></g></svg>