<svg xmlns="http://www.w3.org/2000/svg" xmlns:xlink="http://www.w3.org/1999/xlink" id="Layer_1" width="410.464" height="65" enable-background="new 0 0 410.464 65" overflow="visible" version="1.1" viewBox="0 0 410.464 65" xml:space="preserve"><g><g><g><line x1="188" x2="218" y1="32.5" y2="32.5" fill="none" stroke="#000"/><path d="M217.49,32.5l-1.096-1.802l0.063-0.04l2.938,1.166c1.023,0.226,2.047,0.45,3.07,0.676 c-1.023,0.225-2.047,0.45-3.07,0.676l-2.938,1.166l-0.063-0.029L217.49,32.5z"/></g></g></g><g><g><g><line x1="282" x2="312" y1="32.5" y2="32.5" fill="none" stroke="#000"/><path d="M311.49,32.5l-1.096-1.802l0.063-0.04l2.938,1.166c1.023,0.226,2.047,0.45,3.07,0.676 c-1.023,0.225-2.047,0.45-3.07,0.676l-2.938,1.166l-0.063-0.029L311.49,32.5z"/></g></g></g><g><g><g><line x1="376" x2="406" y1="32.5" y2="32.5" fill="none" stroke="#000"/><path d="M405.49,32.5l-1.096-1.802l0.063-0.04l2.938,1.166c1.023,0.226,2.047,0.45,3.07,0.676 c-1.023,0.225-2.047,0.45-3.07,0.676l-2.938,1.166l-0.063-0.029L405.49,32.5z"/></g></g></g><g><g><g><line x1="94" x2="124" y1="32.5" y2="32.5" fill="none" stroke="#000"/><path d="M123.49,32.5l-1.096-1.802l0.062-0.041l2.938,1.167c1.023,0.226,2.047,0.45,3.07,0.676 c-1.023,0.225-2.047,0.45-3.07,0.676l-2.938,1.166l-0.062-0.029L123.49,32.5z"/></g></g></g><rect width="60" height="36" x="128" y="14.5" fill="none" stroke="#000"/><text font-family="'TimesNewRomanPSMT'" font-size="9" transform="matrix(1 0 0 1 132.7559 34.8594)">Preprocessing</text><g><g><g><line x1="0" x2="30" y1="32.5" y2="32.5" fill="none" stroke="#000"/><path d="M29.49,32.5l-1.096-1.802l0.062-0.041l2.938,1.167c1.023,0.226,2.047,0.45,3.07,0.676 c-1.023,0.225-2.047,0.45-3.07,0.676l-2.938,1.166l-0.062-0.029L29.49,32.5z"/></g></g></g><g><rect width="60" height="36" x="34" y="14.5" fill="none" stroke="#000"/><text font-family="'TimesNewRomanPSMT'" font-size="9" transform="matrix(1 0 0 1 46.7539 34.8594)">Encoding</text></g><rect width="60" height="36" x="222" y="14.5" fill="none" stroke="#000"/><text font-family="'TimesNewRomanPSMT'" font-size="9" transform="matrix(1 0 0 1 237.728 34.8594)">Imputer</text><g><g><rect width="30" height="18" x="321" y="3.5" fill="none" stroke="#000"/><text font-family="'TimesNewRomanPSMT'" font-size="9" transform="matrix(1 0 0 1 326.2554 14.8604)">Train</text></g><g><rect width="30" height="18" x="321" y="23.5" fill="none" stroke="#000"/><text font-family="'TimesNewRomanPSMT'" font-size="9" transform="matrix(1 0 0 1 328.2534 34.8594)">Test</text><text font-family="'TimesNewRomanPSMT'" font-size="9" transform="matrix(1 0 0 1 356.2495 34.8594)">ML</text></g><g><rect width="30" height="18" x="321" y="43.5" fill="none" stroke="#000"/><text font-family="'TimesNewRomanPSMT'" font-size="9" transform="matrix(1 0 0 1 329.0015 54.8594)">Use</text></g></g><rect width="60" height="64" x="316" y=".5" fill="none" stroke="#000"/></svg>