<svg xmlns="http://www.w3.org/2000/svg" xmlns:xlink="http://www.w3.org/1999/xlink" id="Layer_1" width="369.598" height="358.964" enable-background="new 0 0 369.598 358.964" overflow="visible" version="1.1" viewBox="0 0 369.598 358.964" xml:space="preserve"><rect width="60" height="75" x="309.098" y="95.464" fill="#FFF" stroke="#000"/><g><g><circle cx="325.598" cy="159.964" r="2.25" fill="#FFF" stroke="#000" stroke-width=".25"/><circle cx="332.348" cy="159.964" r="2.25" fill="#FFF" stroke="#000" stroke-width=".25"/><circle cx="339.098" cy="159.964" r="2.25" fill="#FFF" stroke="#000" stroke-width=".25"/><circle cx="345.848" cy="159.964" r="2.25" fill="#FFF" stroke="#000" stroke-width=".25"/><circle cx="352.598" cy="159.964" r="2.25" fill="#FFF" stroke="#000" stroke-width=".25"/></g><g><circle cx="318.848" cy="141.964" r="2.25" fill="#FFF" stroke="#000" stroke-width=".25"/><circle cx="325.598" cy="141.964" r="2.25" fill="#FFF" stroke="#000" stroke-width=".25"/><circle cx="332.348" cy="141.964" r="2.25" fill="#FFF" stroke="#000" stroke-width=".25"/><circle cx="339.098" cy="141.964" r="2.25" fill="#FFF" stroke="#000" stroke-width=".25"/><circle cx="345.848" cy="141.964" r="2.25" fill="#FFF" stroke="#000" stroke-width=".25"/><circle cx="352.598" cy="141.964" r="2.25" fill="#FFF" stroke="#000" stroke-width=".25"/><circle cx="359.348" cy="141.964" r="2.25" fill="#FFF" stroke="#000" stroke-width=".25"/></g><g><circle cx="315.473" cy="132.964" r="2.25" fill="#FFF" stroke="#000" stroke-width=".25"/><circle cx="322.223" cy="132.964" r="2.25" fill="#FFF" stroke="#000" stroke-width=".25"/><circle cx="328.973" cy="132.964" r="2.25" fill="#FFF" stroke="#000" stroke-width=".25"/><circle cx="335.723" cy="132.964" r="2.25" fill="#FFF" stroke="#000" stroke-width=".25"/><circle cx="342.473" cy="132.964" r="2.25" fill="#FFF" stroke="#000" stroke-width=".25"/><circle cx="349.223" cy="132.964" r="2.25" fill="#FFF" stroke="#000" stroke-width=".25"/><circle cx="355.973" cy="132.964" r="2.25" fill="#FFF" stroke="#000" stroke-width=".25"/><circle cx="362.723" cy="132.964" r="2.25" fill="#FFF" stroke="#000" stroke-width=".25"/></g><g><circle cx="318.848" cy="123.964" r="2.25" fill="#FFF" stroke="#000" stroke-width=".25"/><circle cx="325.598" cy="123.964" r="2.25" fill="#FFF" stroke="#000" stroke-width=".25"/><circle cx="332.348" cy="123.964" r="2.25" fill="#FFF" stroke="#000" stroke-width=".25"/><circle cx="339.098" cy="123.964" r="2.25" fill="#FFF" stroke="#000" stroke-width=".25"/><circle cx="345.848" cy="123.964" r="2.25" fill="#FFF" stroke="#000" stroke-width=".25"/><circle cx="352.598" cy="123.964" r="2.25" fill="#FFF" stroke="#000" stroke-width=".25"/><circle cx="359.348" cy="123.964" r="2.25" fill="#FFF" stroke="#000" stroke-width=".25"/></g><g><circle cx="322.223" cy="150.964" r="2.25" fill="#FFF" stroke="#000" stroke-width=".25"/><circle cx="328.973" cy="150.964" r="2.25" fill="#FFF" stroke="#000" stroke-width=".25"/><circle cx="335.723" cy="150.964" r="2.25" fill="#FFF" stroke="#000" stroke-width=".25"/><circle cx="342.473" cy="150.964" r="2.25" fill="#FFF" stroke="#000" stroke-width=".25"/><circle cx="349.223" cy="150.964" r="2.25" fill="#FFF" stroke="#000" stroke-width=".25"/><circle cx="355.973" cy="150.964" r="2.25" fill="#FFF" stroke="#000" stroke-width=".25"/></g><g><circle cx="322.223" cy="114.964" r="2.25" fill="#FFF" stroke="#000" stroke-width=".25"/><circle cx="328.973" cy="114.964" r="2.25" fill="#FFF" stroke="#000" stroke-width=".25"/><circle cx="335.723" cy="114.964" r="2.25" fill="#FFF" stroke="#000" stroke-width=".25"/><circle cx="342.473" cy="114.964" r="2.25" fill="#FFF" stroke="#000" stroke-width=".25"/><circle cx="349.223" cy="114.964" r="2.25" fill="#FFF" stroke="#000" stroke-width=".25"/><circle cx="355.973" cy="114.964" r="2.25" fill="#FFF" stroke="#000" stroke-width=".25"/></g><g><circle cx="325.598" cy="105.964" r="2.25" fill="#FFF" stroke="#000" stroke-width=".25"/><circle cx="332.348" cy="105.964" r="2.25" fill="#FFF" stroke="#000" stroke-width=".25"/><circle cx="339.098" cy="105.964" r="2.25" fill="#FFF" stroke="#000" stroke-width=".25"/><circle cx="345.848" cy="105.964" r="2.25" fill="#FFF" stroke="#000" stroke-width=".25"/><circle cx="352.598" cy="105.964" r="2.25" fill="#FFF" stroke="#000" stroke-width=".25"/></g></g><g><g><g><line x1="0" x2="30" y1="346.464" y2="346.464" fill="none" stroke="#000"/><path d="M29.49,346.464l-1.096-1.802l0.062-0.04l2.938,1.166c1.023,0.226,2.047,0.45,3.07,0.676 c-1.023,0.225-2.047,0.45-3.07,0.676l-2.938,1.166l-0.062-0.03L29.49,346.464z"/></g></g></g><g><rect width="59.999" height="36" x="29.098" y="201.464" fill="none" stroke="#000"/><text transform="matrix(1 0 0 1 47.5972 216.4248)"><tspan x="0" y="0" font-family="'TimesNewRomanPSMT'" font-size="9">Single</tspan><tspan x="-8.246" y="10.799" font-family="'TimesNewRomanPSMT'" font-size="9">Imputation</tspan></text></g><g><rect width="340" height="36" x="29.098" y="29.464" fill="none" stroke="#000"/><text font-family="'TimesNewRomanPSMT'" font-size="9" transform="matrix(1 0 0 1 181.3535 49.8242)">Ensemble</text></g><rect width="60" height="75" x="239.098" y="95.464" fill="#FFF" stroke="#000"/><g><g><circle cx="255.598" cy="159.964" r="2.25" fill="#FFF" stroke="#000" stroke-width=".25"/><circle cx="262.348" cy="159.964" r="2.25" fill="#FFF" stroke="#000" stroke-width=".25"/><circle cx="269.098" cy="159.964" r="2.25" fill="#FFF" stroke="#000" stroke-width=".25"/><circle cx="275.848" cy="159.964" r="2.25" fill="#FFF" stroke="#000" stroke-width=".25"/><circle cx="282.598" cy="159.964" r="2.25" fill="#FFF" stroke="#000" stroke-width=".25"/></g><g><circle cx="248.848" cy="141.964" r="2.25" fill="#FFF" stroke="#000" stroke-width=".25"/><circle cx="255.598" cy="141.964" r="2.25" fill="#FFF" stroke="#000" stroke-width=".25"/><circle cx="262.348" cy="141.964" r="2.25" fill="#FFF" stroke="#000" stroke-width=".25"/><circle cx="269.098" cy="141.964" r="2.25" fill="#FFF" stroke="#000" stroke-width=".25"/><circle cx="275.848" cy="141.964" r="2.25" fill="#FFF" stroke="#000" stroke-width=".25"/><circle cx="282.598" cy="141.964" r="2.25" fill="#FFF" stroke="#000" stroke-width=".25"/><circle cx="289.348" cy="141.964" r="2.25" fill="#FFF" stroke="#000" stroke-width=".25"/></g><g><circle cx="245.473" cy="132.964" r="2.25" fill="#FFF" stroke="#000" stroke-width=".25"/><circle cx="252.223" cy="132.964" r="2.25" fill="#FFF" stroke="#000" stroke-width=".25"/><circle cx="258.973" cy="132.964" r="2.25" fill="#FFF" stroke="#000" stroke-width=".25"/><circle cx="265.723" cy="132.964" r="2.25" fill="#FFF" stroke="#000" stroke-width=".25"/><circle cx="272.473" cy="132.964" r="2.25" fill="#FFF" stroke="#000" stroke-width=".25"/><circle cx="279.223" cy="132.964" r="2.25" fill="#FFF" stroke="#000" stroke-width=".25"/><circle cx="285.973" cy="132.964" r="2.25" fill="#FFF" stroke="#000" stroke-width=".25"/><circle cx="292.723" cy="132.964" r="2.25" fill="#FFF" stroke="#000" stroke-width=".25"/></g><g><circle cx="248.848" cy="123.964" r="2.25" fill="#FFF" stroke="#000" stroke-width=".25"/><circle cx="255.598" cy="123.964" r="2.25" fill="#FFF" stroke="#000" stroke-width=".25"/><circle cx="262.348" cy="123.964" r="2.25" fill="#FFF" stroke="#000" stroke-width=".25"/><circle cx="269.098" cy="123.964" r="2.25" fill="#FFF" stroke="#000" stroke-width=".25"/><circle cx="275.848" cy="123.964" r="2.25" fill="#FFF" stroke="#000" stroke-width=".25"/><circle cx="282.598" cy="123.964" r="2.25" fill="#FFF" stroke="#000" stroke-width=".25"/><circle cx="289.348" cy="123.964" r="2.25" fill="#FFF" stroke="#000" stroke-width=".25"/></g><g><circle cx="252.223" cy="150.964" r="2.25" fill="#FFF" stroke="#000" stroke-width=".25"/><circle cx="258.973" cy="150.964" r="2.25" fill="#FFF" stroke="#000" stroke-width=".25"/><circle cx="265.723" cy="150.964" r="2.25" fill="#FFF" stroke="#000" stroke-width=".25"/><circle cx="272.473" cy="150.964" r="2.25" fill="#FFF" stroke="#000" stroke-width=".25"/><circle cx="279.223" cy="150.964" r="2.25" fill="#FFF" stroke="#000" stroke-width=".25"/><circle cx="285.973" cy="150.964" r="2.25" fill="#FFF" stroke="#000" stroke-width=".25"/></g><g><circle cx="252.223" cy="114.964" r="2.25" fill="#FFF" stroke="#000" stroke-width=".25"/><circle cx="258.973" cy="114.964" r="2.25" fill="#FFF" stroke="#000" stroke-width=".25"/><circle cx="265.723" cy="114.964" r="2.25" fill="#FFF" stroke="#000" stroke-width=".25"/><circle cx="272.473" cy="114.964" r="2.25" fill="#FFF" stroke="#000" stroke-width=".25"/><circle cx="279.223" cy="114.964" r="2.25" fill="#FFF" stroke="#000" stroke-width=".25"/><circle cx="285.973" cy="114.964" r="2.25" fill="#FFF" stroke="#000" stroke-width=".25"/></g><g><circle cx="255.598" cy="105.964" r="2.25" fill="#FFF" stroke="#000" stroke-width=".25"/><circle cx="262.348" cy="105.964" r="2.25" fill="#FFF" stroke="#000" stroke-width=".25"/><circle cx="269.098" cy="105.964" r="2.25" fill="#FFF" stroke="#000" stroke-width=".25"/><circle cx="275.848" cy="105.964" r="2.25" fill="#FFF" stroke="#000" stroke-width=".25"/><circle cx="282.598" cy="105.964" r="2.25" fill="#FFF" stroke="#000" stroke-width=".25"/></g></g><g><g><path fill="none" stroke="#000" d="M269.098,169.464"/></g><g><path fill="none" stroke="#000" d="M269.098,194.464"/></g></g><rect width="60" height="75" x="169.098" y="95.464" fill="#FFF" stroke="#000"/><g><g><circle cx="185.598" cy="159.964" r="2.25" fill="#FFF" stroke="#000" stroke-width=".25"/><circle cx="192.348" cy="159.964" r="2.25" fill="#FFF" stroke="#000" stroke-width=".25"/><circle cx="199.098" cy="159.964" r="2.25" fill="#FFF" stroke="#000" stroke-width=".25"/><circle cx="205.848" cy="159.964" r="2.25" fill="#FFF" stroke="#000" stroke-width=".25"/><circle cx="212.598" cy="159.964" r="2.25" fill="#FFF" stroke="#000" stroke-width=".25"/></g><g><circle cx="178.848" cy="141.964" r="2.25" fill="#FFF" stroke="#000" stroke-width=".25"/><circle cx="185.598" cy="141.964" r="2.25" fill="#FFF" stroke="#000" stroke-width=".25"/><circle cx="192.348" cy="141.964" r="2.25" fill="#FFF" stroke="#000" stroke-width=".25"/><circle cx="199.098" cy="141.964" r="2.25" fill="#FFF" stroke="#000" stroke-width=".25"/><circle cx="205.848" cy="141.964" r="2.25" fill="#FFF" stroke="#000" stroke-width=".25"/><circle cx="212.598" cy="141.964" r="2.25" fill="#FFF" stroke="#000" stroke-width=".25"/><circle cx="219.348" cy="141.964" r="2.25" fill="#FFF" stroke="#000" stroke-width=".25"/></g><g><circle cx="175.473" cy="132.964" r="2.25" fill="#FFF" stroke="#000" stroke-width=".25"/><circle cx="182.223" cy="132.964" r="2.25" fill="#FFF" stroke="#000" stroke-width=".25"/><circle cx="188.973" cy="132.964" r="2.25" fill="#FFF" stroke="#000" stroke-width=".25"/><circle cx="195.723" cy="132.964" r="2.25" fill="#FFF" stroke="#000" stroke-width=".25"/><circle cx="202.473" cy="132.964" r="2.25" fill="#FFF" stroke="#000" stroke-width=".25"/><circle cx="209.223" cy="132.964" r="2.25" fill="#FFF" stroke="#000" stroke-width=".25"/><circle cx="215.973" cy="132.964" r="2.25" fill="#FFF" stroke="#000" stroke-width=".25"/><circle cx="222.723" cy="132.964" r="2.25" fill="#FFF" stroke="#000" stroke-width=".25"/></g><g><circle cx="178.848" cy="123.964" r="2.25" fill="#FFF" stroke="#000" stroke-width=".25"/><circle cx="185.598" cy="123.964" r="2.25" fill="#FFF" stroke="#000" stroke-width=".25"/><circle cx="192.348" cy="123.964" r="2.25" fill="#FFF" stroke="#000" stroke-width=".25"/><circle cx="199.098" cy="123.964" r="2.25" fill="#FFF" stroke="#000" stroke-width=".25"/><circle cx="205.848" cy="123.964" r="2.25" fill="#FFF" stroke="#000" stroke-width=".25"/><circle cx="212.598" cy="123.964" r="2.25" fill="#FFF" stroke="#000" stroke-width=".25"/><circle cx="219.348" cy="123.964" r="2.25" fill="#FFF" stroke="#000" stroke-width=".25"/></g><g><circle cx="182.223" cy="150.964" r="2.25" fill="#FFF" stroke="#000" stroke-width=".25"/><circle cx="188.973" cy="150.964" r="2.25" fill="#FFF" stroke="#000" stroke-width=".25"/><circle cx="195.723" cy="150.964" r="2.25" fill="#FFF" stroke="#000" stroke-width=".25"/><circle cx="202.473" cy="150.964" r="2.25" fill="#FFF" stroke="#000" stroke-width=".25"/><circle cx="209.223" cy="150.964" r="2.25" fill="#FFF" stroke="#000" stroke-width=".25"/><circle cx="215.973" cy="150.964" r="2.25" fill="#FFF" stroke="#000" stroke-width=".25"/></g><g><circle cx="182.223" cy="114.964" r="2.25" fill="#FFF" stroke="#000" stroke-width=".25"/><circle cx="188.973" cy="114.964" r="2.25" fill="#FFF" stroke="#000" stroke-width=".25"/><circle cx="195.723" cy="114.964" r="2.25" fill="#FFF" stroke="#000" stroke-width=".25"/><circle cx="202.473" cy="114.964" r="2.25" fill="#FFF" stroke="#000" stroke-width=".25"/><circle cx="209.223" cy="114.964" r="2.25" fill="#FFF" stroke="#000" stroke-width=".25"/><circle cx="215.973" cy="114.964" r="2.25" fill="#FFF" stroke="#000" stroke-width=".25"/></g><g><circle cx="185.598" cy="105.964" r="2.25" fill="#FFF" stroke="#000" stroke-width=".25"/><circle cx="192.348" cy="105.964" r="2.25" fill="#FFF" stroke="#000" stroke-width=".25"/><circle cx="199.098" cy="105.964" r="2.25" fill="#FFF" stroke="#000" stroke-width=".25"/><circle cx="205.848" cy="105.964" r="2.25" fill="#FFF" stroke="#000" stroke-width=".25"/><circle cx="212.598" cy="105.964" r="2.25" fill="#FFF" stroke="#000" stroke-width=".25"/></g></g><rect width="60" height="75" x="99.098" y="95.464" fill="#FFF" stroke="#000"/><g><g><circle cx="115.598" cy="159.964" r="2.25" fill="#FFF" stroke="#000" stroke-width=".25"/><circle cx="122.348" cy="159.964" r="2.25" fill="#FFF" stroke="#000" stroke-width=".25"/><circle cx="129.098" cy="159.964" r="2.25" fill="#FFF" stroke="#000" stroke-width=".25"/><circle cx="135.848" cy="159.964" r="2.25" fill="#FFF" stroke="#000" stroke-width=".25"/><circle cx="142.598" cy="159.964" r="2.25" fill="#FFF" stroke="#000" stroke-width=".25"/></g><g><circle cx="108.848" cy="141.964" r="2.25" fill="#FFF" stroke="#000" stroke-width=".25"/><circle cx="115.598" cy="141.964" r="2.25" fill="#FFF" stroke="#000" stroke-width=".25"/><circle cx="122.348" cy="141.964" r="2.25" fill="#FFF" stroke="#000" stroke-width=".25"/><circle cx="129.098" cy="141.964" r="2.25" fill="#FFF" stroke="#000" stroke-width=".25"/><circle cx="135.848" cy="141.964" r="2.25" fill="#FFF" stroke="#000" stroke-width=".25"/><circle cx="142.598" cy="141.964" r="2.25" fill="#FFF" stroke="#000" stroke-width=".25"/><circle cx="149.348" cy="141.964" r="2.25" fill="#FFF" stroke="#000" stroke-width=".25"/></g><g><circle cx="105.473" cy="132.964" r="2.25" fill="#FFF" stroke="#000" stroke-width=".25"/><circle cx="112.223" cy="132.964" r="2.25" fill="#FFF" stroke="#000" stroke-width=".25"/><circle cx="118.973" cy="132.964" r="2.25" fill="#FFF" stroke="#000" stroke-width=".25"/><circle cx="125.723" cy="132.964" r="2.25" fill="#FFF" stroke="#000" stroke-width=".25"/><circle cx="132.473" cy="132.964" r="2.25" fill="#FFF" stroke="#000" stroke-width=".25"/><circle cx="139.223" cy="132.964" r="2.25" fill="#FFF" stroke="#000" stroke-width=".25"/><circle cx="145.973" cy="132.964" r="2.25" fill="#FFF" stroke="#000" stroke-width=".25"/><circle cx="152.723" cy="132.964" r="2.25" fill="#FFF" stroke="#000" stroke-width=".25"/></g><g><circle cx="108.848" cy="123.964" r="2.25" fill="#FFF" stroke="#000" stroke-width=".25"/><circle cx="115.598" cy="123.964" r="2.25" fill="#FFF" stroke="#000" stroke-width=".25"/><circle cx="122.348" cy="123.964" r="2.25" fill="#FFF" stroke="#000" stroke-width=".25"/><circle cx="129.098" cy="123.964" r="2.25" fill="#FFF" stroke="#000" stroke-width=".25"/><circle cx="135.848" cy="123.964" r="2.25" fill="#FFF" stroke="#000" stroke-width=".25"/><circle cx="142.598" cy="123.964" r="2.25" fill="#FFF" stroke="#000" stroke-width=".25"/><circle cx="149.348" cy="123.964" r="2.25" fill="#FFF" stroke="#000" stroke-width=".25"/></g><g><circle cx="112.223" cy="150.964" r="2.25" fill="#FFF" stroke="#000" stroke-width=".25"/><circle cx="118.973" cy="150.964" r="2.25" fill="#FFF" stroke="#000" stroke-width=".25"/><circle cx="125.723" cy="150.964" r="2.25" fill="#FFF" stroke="#000" stroke-width=".25"/><circle cx="132.473" cy="150.964" r="2.25" fill="#FFF" stroke="#000" stroke-width=".25"/><circle cx="139.223" cy="150.964" r="2.25" fill="#FFF" stroke="#000" stroke-width=".25"/><circle cx="145.973" cy="150.964" r="2.25" fill="#FFF" stroke="#000" stroke-width=".25"/></g><g><circle cx="112.223" cy="114.964" r="2.25" fill="#FFF" stroke="#000" stroke-width=".25"/><circle cx="118.973" cy="114.964" r="2.25" fill="#FFF" stroke="#000" stroke-width=".25"/><circle cx="125.723" cy="114.964" r="2.25" fill="#FFF" stroke="#000" stroke-width=".25"/><circle cx="132.473" cy="114.964" r="2.25" fill="#FFF" stroke="#000" stroke-width=".25"/><circle cx="139.223" cy="114.964" r="2.25" fill="#FFF" stroke="#000" stroke-width=".25"/><circle cx="145.973" cy="114.964" r="2.25" fill="#FFF" stroke="#000" stroke-width=".25"/></g><g><circle cx="115.598" cy="105.964" r="2.25" fill="#FFF" stroke="#000" stroke-width=".25"/><circle cx="122.348" cy="105.964" r="2.25" fill="#FFF" stroke="#000" stroke-width=".25"/><circle cx="129.098" cy="105.964" r="2.25" fill="#FFF" stroke="#000" stroke-width=".25"/><circle cx="135.848" cy="105.964" r="2.25" fill="#FFF" stroke="#000" stroke-width=".25"/><circle cx="142.598" cy="105.964" r="2.25" fill="#FFF" stroke="#000" stroke-width=".25"/></g></g><rect width="60" height="75" x="29.098" y="95.464" fill="#FFF" stroke="#000"/><g><g><circle cx="45.598" cy="159.964" r="2.25" fill="#FFF" stroke="#000" stroke-width=".25"/><circle cx="52.348" cy="159.964" r="2.25" fill="#FFF" stroke="#000" stroke-width=".25"/><circle cx="59.098" cy="159.964" r="2.25" fill="#FFF" stroke="#000" stroke-width=".25"/><circle cx="65.848" cy="159.964" r="2.25" fill="#FFF" stroke="#000" stroke-width=".25"/><circle cx="72.598" cy="159.964" r="2.25" fill="#FFF" stroke="#000" stroke-width=".25"/></g><g><circle cx="38.848" cy="141.964" r="2.25" fill="#FFF" stroke="#000" stroke-width=".25"/><circle cx="45.598" cy="141.964" r="2.25" fill="#FFF" stroke="#000" stroke-width=".25"/><circle cx="52.348" cy="141.964" r="2.25" fill="#FFF" stroke="#000" stroke-width=".25"/><circle cx="59.098" cy="141.964" r="2.25" fill="#FFF" stroke="#000" stroke-width=".25"/><circle cx="65.848" cy="141.964" r="2.25" fill="#FFF" stroke="#000" stroke-width=".25"/><circle cx="72.598" cy="141.964" r="2.25" fill="#FFF" stroke="#000" stroke-width=".25"/><circle cx="79.348" cy="141.964" r="2.25" fill="#FFF" stroke="#000" stroke-width=".25"/></g><g><circle cx="35.473" cy="132.964" r="2.25" fill="#FFF" stroke="#000" stroke-width=".25"/><circle cx="42.223" cy="132.964" r="2.25" fill="#FFF" stroke="#000" stroke-width=".25"/><circle cx="48.973" cy="132.964" r="2.25" fill="#FFF" stroke="#000" stroke-width=".25"/><circle cx="55.723" cy="132.964" r="2.25" fill="#FFF" stroke="#000" stroke-width=".25"/><circle cx="62.473" cy="132.964" r="2.25" fill="#FFF" stroke="#000" stroke-width=".25"/><circle cx="69.223" cy="132.964" r="2.25" fill="#FFF" stroke="#000" stroke-width=".25"/><circle cx="75.973" cy="132.964" r="2.25" fill="#FFF" stroke="#000" stroke-width=".25"/><circle cx="82.723" cy="132.964" r="2.25" fill="#FFF" stroke="#000" stroke-width=".25"/></g><g><circle cx="38.848" cy="123.964" r="2.25" fill="#FFF" stroke="#000" stroke-width=".25"/><circle cx="45.598" cy="123.964" r="2.25" fill="#FFF" stroke="#000" stroke-width=".25"/><circle cx="52.348" cy="123.964" r="2.25" fill="#FFF" stroke="#000" stroke-width=".25"/><circle cx="59.098" cy="123.964" r="2.25" fill="#FFF" stroke="#000" stroke-width=".25"/><circle cx="65.848" cy="123.964" r="2.25" fill="#FFF" stroke="#000" stroke-width=".25"/><circle cx="72.598" cy="123.964" r="2.25" fill="#FFF" stroke="#000" stroke-width=".25"/><circle cx="79.348" cy="123.964" r="2.25" fill="#FFF" stroke="#000" stroke-width=".25"/></g><g><circle cx="42.223" cy="150.964" r="2.25" fill="#FFF" stroke="#000" stroke-width=".25"/><circle cx="48.973" cy="150.964" r="2.25" fill="#FFF" stroke="#000" stroke-width=".25"/><circle cx="55.723" cy="150.964" r="2.25" fill="#FFF" stroke="#000" stroke-width=".25"/><circle cx="62.473" cy="150.964" r="2.25" fill="#FFF" stroke="#000" stroke-width=".25"/><circle cx="69.223" cy="150.964" r="2.25" fill="#FFF" stroke="#000" stroke-width=".25"/><circle cx="75.973" cy="150.964" r="2.25" fill="#FFF" stroke="#000" stroke-width=".25"/></g><g><circle cx="42.223" cy="114.964" r="2.25" fill="#FFF" stroke="#000" stroke-width=".25"/><circle cx="48.973" cy="114.964" r="2.25" fill="#FFF" stroke="#000" stroke-width=".25"/><circle cx="55.723" cy="114.964" r="2.25" fill="#FFF" stroke="#000" stroke-width=".25"/><circle cx="62.473" cy="114.964" r="2.25" fill="#FFF" stroke="#000" stroke-width=".25"/><circle cx="69.223" cy="114.964" r="2.25" fill="#FFF" stroke="#000" stroke-width=".25"/><circle cx="75.973" cy="114.964" r="2.25" fill="#FFF" stroke="#000" stroke-width=".25"/></g><g><circle cx="45.598" cy="105.964" r="2.25" fill="#FFF" stroke="#000" stroke-width=".25"/><circle cx="52.348" cy="105.964" r="2.25" fill="#FFF" stroke="#000" stroke-width=".25"/><circle cx="59.098" cy="105.964" r="2.25" fill="#FFF" stroke="#000" stroke-width=".25"/><circle cx="65.848" cy="105.964" r="2.25" fill="#FFF" stroke="#000" stroke-width=".25"/><circle cx="72.598" cy="105.964" r="2.25" fill="#FFF" stroke="#000" stroke-width=".25"/></g></g><g><polyline fill="none" stroke="#000" points="35 334.464 59 334.464 59 334.046 59 309.046"/><path d="M59,309.556l-1.802,1.096l-0.041-0.062l1.167-2.938c0.226-1.023,0.45-2.047,0.676-3.07c0.225,1.023,0.45,2.047,0.676,3.07 l1.167,2.938l-0.031,0.062L59,309.556z"/></g><g><polyline fill="none" stroke="#000" points="35 340.464 129 340.464 129 334.046 129 309.046"/><path d="M129,309.556l-1.802,1.096l-0.041-0.062l1.167-2.938c0.226-1.023,0.45-2.047,0.676-3.07c0.225,1.023,0.45,2.047,0.676,3.07 l1.167,2.938l-0.031,0.062L129,309.556z"/></g><g><polyline fill="none" stroke="#000" points="35 346.464 199 346.464 199 334.046 199 309.046"/><path d="M199,309.556l-1.802,1.096l-0.04-0.062l1.166-2.938c0.226-1.023,0.45-2.047,0.676-3.07c0.225,1.023,0.45,2.047,0.676,3.07 l1.166,2.938l-0.03,0.062L199,309.556z"/></g><g><polyline fill="none" stroke="#000" points="35 352.464 269 352.464 269 334.046 269 309.046"/><path d="M269,309.556l-1.802,1.096l-0.04-0.062l1.166-2.938c0.226-1.023,0.45-2.047,0.676-3.07c0.225,1.023,0.45,2.047,0.676,3.07 l1.166,2.938l-0.03,0.062L269,309.556z"/></g><g><polyline fill="none" stroke="#000" points="35 358.464 339 358.464 339 334.046 339 309.046"/><path d="M339,309.556l-1.802,1.096l-0.04-0.062l1.166-2.938c0.226-1.023,0.45-2.047,0.676-3.07c0.225,1.023,0.45,2.047,0.676,3.07 l1.166,2.938l-0.03,0.062L339,309.556z"/></g><g><line x1="59.098" x2="59.098" y1="267.464" y2="242.464" fill="none" stroke="#000"/><path d="M59.098,242.975l-1.802,1.095l-0.041-0.061l1.167-2.938c0.226-1.023,0.45-2.048,0.676-3.071 c0.225,1.023,0.45,2.048,0.676,3.071l1.167,2.938l-0.031,0.061L59.098,242.975z"/></g><g><line x1="59.098" x2="59.098" y1="201.464" y2="176.464" fill="none" stroke="#000"/><path d="M59.098,176.975l-1.802,1.095l-0.041-0.061l1.167-2.938c0.226-1.023,0.45-2.048,0.676-3.071 c0.225,1.023,0.45,2.048,0.676,3.071l1.167,2.938l-0.031,0.061L59.098,176.975z"/></g><g><line x1="59.098" x2="59.098" y1="95.464" y2="70.464" fill="none" stroke="#000"/><path d="M59.098,70.975l-1.802,1.095l-0.041-0.061l1.167-2.938c0.226-1.023,0.45-2.048,0.676-3.071 c0.225,1.023,0.45,2.048,0.676,3.071l1.167,2.938l-0.031,0.061L59.098,70.975z"/></g><g><line x1="129.098" x2="129.098" y1="95.464" y2="70.464" fill="none" stroke="#000"/><path d="M129.098,70.975l-1.802,1.095l-0.041-0.061l1.167-2.938c0.226-1.023,0.45-2.047,0.676-3.071 c0.225,1.023,0.45,2.047,0.676,3.071l1.167,2.938l-0.031,0.061L129.098,70.975z"/></g><g><line x1="199.098" x2="199.098" y1="95.464" y2="70.464" fill="none" stroke="#000"/><path d="M199.098,70.975l-1.802,1.095l-0.04-0.061l1.166-2.938c0.226-1.023,0.45-2.047,0.676-3.071 c0.225,1.023,0.45,2.047,0.676,3.071l1.166,2.938l-0.03,0.061L199.098,70.975z"/></g><g><line x1="269.098" x2="269.098" y1="95.464" y2="70.464" fill="none" stroke="#000"/><path d="M269.098,70.975l-1.802,1.095l-0.04-0.061l1.166-2.938c0.226-1.023,0.45-2.047,0.676-3.071 c0.225,1.023,0.45,2.047,0.676,3.071l1.166,2.938l-0.03,0.061L269.098,70.975z"/></g><g><line x1="339.098" x2="339.098" y1="95.464" y2="70.464" fill="none" stroke="#000"/><path d="M339.098,70.975l-1.802,1.095l-0.04-0.061l1.166-2.938c0.226-1.023,0.45-2.047,0.676-3.071 c0.225,1.023,0.45,2.047,0.676,3.071l1.166,2.938l-0.03,0.061L339.098,70.975z"/></g><g><line x1="199.098" x2="199.098" y1="29.464" y2="4.464" fill="none" stroke="#000"/><path d="M199.098,4.975l-1.802,1.095l-0.04-0.061l1.166-2.938c0.226-1.023,0.45-2.047,0.676-3.071 c0.225,1.023,0.45,2.047,0.676,3.071l1.166,2.938l-0.03,0.061L199.098,4.975z"/></g><g><rect width="59.999" height="36" x="29.098" y="267.464" fill="none" stroke="#000"/><text transform="matrix(1 0 0 1 41.5986 282.4248)"><tspan x="0" y="0" font-family="'TimesNewRomanPSMT'" font-size="9">Bootstrap</tspan><tspan x=".248" y="10.799" font-family="'TimesNewRomanPSMT'" font-size="9">Sampling</tspan></text></g><g><rect width="60" height="36" x="99.098" y="201.464" fill="none" stroke="#000"/><text transform="matrix(1 0 0 1 117.5972 216.4248)"><tspan x="0" y="0" font-family="'TimesNewRomanPSMT'" font-size="9">Single</tspan><tspan x="-8.246" y="10.799" font-family="'TimesNewRomanPSMT'" font-size="9">Imputation</tspan></text></g><g><line x1="129.098" x2="129.098" y1="267.464" y2="242.464" fill="none" stroke="#000"/><path d="M129.098,242.975l-1.802,1.095l-0.041-0.061l1.167-2.938c0.226-1.023,0.45-2.048,0.676-3.071 c0.225,1.023,0.45,2.048,0.676,3.071l1.167,2.938l-0.031,0.061L129.098,242.975z"/></g><g><line x1="129.098" x2="129.098" y1="201.464" y2="176.464" fill="none" stroke="#000"/><path d="M129.098,176.975l-1.802,1.095l-0.041-0.061l1.167-2.938c0.226-1.023,0.45-2.048,0.676-3.071 c0.225,1.023,0.45,2.048,0.676,3.071l1.167,2.938l-0.031,0.061L129.098,176.975z"/></g><g><rect width="60" height="36" x="99.098" y="267.464" fill="none" stroke="#000"/><text transform="matrix(1 0 0 1 111.5986 282.4248)"><tspan x="0" y="0" font-family="'TimesNewRomanPSMT'" font-size="9">Bootstrap</tspan><tspan x=".248" y="10.799" font-family="'TimesNewRomanPSMT'" font-size="9">Sampling</tspan></text></g><g><rect width="60" height="36" x="169.098" y="201.464" fill="none" stroke="#000"/><text transform="matrix(1 0 0 1 187.5977 216.4248)"><tspan x="0" y="0" font-family="'TimesNewRomanPSMT'" font-size="9">Single</tspan><tspan x="-8.246" y="10.799" font-family="'TimesNewRomanPSMT'" font-size="9">Imputation</tspan></text></g><g><line x1="199.098" x2="199.098" y1="267.464" y2="242.464" fill="none" stroke="#000"/><path d="M199.098,242.975l-1.802,1.095l-0.04-0.061l1.166-2.938c0.226-1.023,0.45-2.048,0.676-3.071 c0.225,1.023,0.45,2.048,0.676,3.071l1.166,2.938l-0.03,0.061L199.098,242.975z"/></g><g><line x1="199.098" x2="199.098" y1="201.464" y2="176.464" fill="none" stroke="#000"/><path d="M199.098,176.975l-1.802,1.095l-0.04-0.061l1.166-2.938c0.226-1.023,0.45-2.048,0.676-3.071 c0.225,1.023,0.45,2.048,0.676,3.071l1.166,2.938l-0.03,0.061L199.098,176.975z"/></g><g><rect width="60" height="36" x="169.098" y="267.464" fill="none" stroke="#000"/><text transform="matrix(1 0 0 1 181.5986 282.4248)"><tspan x="0" y="0" font-family="'TimesNewRomanPSMT'" font-size="9">Bootstrap</tspan><tspan x=".248" y="10.799" font-family="'TimesNewRomanPSMT'" font-size="9">Sampling</tspan></text></g><g><rect width="60" height="36" x="239.098" y="201.464" fill="none" stroke="#000"/><text transform="matrix(1 0 0 1 257.5977 216.4248)"><tspan x="0" y="0" font-family="'TimesNewRomanPSMT'" font-size="9">Single</tspan><tspan x="-8.246" y="10.799" font-family="'TimesNewRomanPSMT'" font-size="9">Imputation</tspan></text></g><g><line x1="269.098" x2="269.098" y1="267.464" y2="242.464" fill="none" stroke="#000"/><path d="M269.098,242.975l-1.802,1.095l-0.04-0.061l1.166-2.938c0.226-1.023,0.45-2.048,0.676-3.071 c0.225,1.023,0.45,2.048,0.676,3.071l1.166,2.938l-0.03,0.061L269.098,242.975z"/></g><g><line x1="269.098" x2="269.098" y1="201.464" y2="176.464" fill="none" stroke="#000"/><path d="M269.098,176.975l-1.802,1.095l-0.04-0.061l1.166-2.938c0.226-1.023,0.45-2.048,0.676-3.071 c0.225,1.023,0.45,2.048,0.676,3.071l1.166,2.938l-0.03,0.061L269.098,176.975z"/></g><g><rect width="60" height="36" x="239.098" y="267.464" fill="none" stroke="#000"/><text transform="matrix(1 0 0 1 251.5986 282.4248)"><tspan x="0" y="0" font-family="'TimesNewRomanPSMT'" font-size="9">Bootstrap</tspan><tspan x=".248" y="10.799" font-family="'TimesNewRomanPSMT'" font-size="9">Sampling</tspan></text></g><g><rect width="60" height="36" x="309.098" y="201.464" fill="none" stroke="#000"/><text transform="matrix(1 0 0 1 327.5977 216.4248)"><tspan x="0" y="0" font-family="'TimesNewRomanPSMT'" font-size="9">Single</tspan><tspan x="-8.246" y="10.799" font-family="'TimesNewRomanPSMT'" font-size="9">Imputation</tspan></text></g><g><line x1="339.098" x2="339.098" y1="267.464" y2="242.464" fill="none" stroke="#000"/><path d="M339.098,242.975l-1.802,1.095l-0.04-0.061l1.166-2.938c0.226-1.023,0.45-2.048,0.676-3.071 c0.225,1.023,0.45,2.048,0.676,3.071l1.166,2.938l-0.03,0.061L339.098,242.975z"/></g><g><line x1="339.098" x2="339.098" y1="201.464" y2="176.464" fill="none" stroke="#000"/><path d="M339.098,176.975l-1.802,1.095l-0.04-0.061l1.166-2.938c0.226-1.023,0.45-2.048,0.676-3.071 c0.225,1.023,0.45,2.048,0.676,3.071l1.166,2.938l-0.03,0.061L339.098,176.975z"/></g><g><rect width="60" height="36" x="309.098" y="267.464" fill="none" stroke="#000"/><text transform="matrix(1 0 0 1 321.5986 282.4248)"><tspan x="0" y="0" font-family="'TimesNewRomanPSMT'" font-size="9">Bootstrap</tspan><tspan x=".248" y="10.799" font-family="'TimesNewRomanPSMT'" font-size="9">Sampling</tspan></text></g><line x1="35" x2="35" y1="334.464" y2="358.464" fill="none" stroke="#000"/></svg>