<svg xmlns="http://www.w3.org/2000/svg" xmlns:xlink="http://www.w3.org/1999/xlink" id="Layer_1" width="284.785" height="142" enable-background="new 0 0 284.785 142" overflow="visible" version="1.1" viewBox="0 0 284.785 142" xml:space="preserve"><rect width="60" height="75" x="224.285" y=".5" fill="#FFF" stroke="#000"/><g><g><circle cx="240.785" cy="65" r="2.25" fill="#FFF" stroke="#000" stroke-width=".25"/><circle cx="247.535" cy="65" r="2.25" fill="#FFF" stroke="#000" stroke-width=".25"/><circle cx="254.285" cy="65" r="2.25" fill="#FFF" stroke="#000" stroke-width=".25"/><circle cx="261.035" cy="65" r="2.25" fill="#FFF" stroke="#000" stroke-width=".25"/><circle cx="267.785" cy="65" r="2.25" fill="#FFF" stroke="#000" stroke-width=".25"/></g><g><circle cx="234.035" cy="47" r="2.25" fill="#FFF" stroke="#000" stroke-width=".25"/><circle cx="240.785" cy="47" r="2.25" fill="#FFF" stroke="#000" stroke-width=".25"/><circle cx="247.535" cy="47" r="2.25" fill="#FFF" stroke="#000" stroke-width=".25"/><circle cx="254.285" cy="47" r="2.25" fill="#FFF" stroke="#000" stroke-width=".25"/><circle cx="261.035" cy="47" r="2.25" fill="#FFF" stroke="#000" stroke-width=".25"/><circle cx="267.785" cy="47" r="2.25" fill="#FFF" stroke="#000" stroke-width=".25"/><circle cx="274.535" cy="47" r="2.25" fill="#FFF" stroke="#000" stroke-width=".25"/></g><g><circle cx="230.66" cy="38" r="2.25" fill="#FFF" stroke="#000" stroke-width=".25"/><circle cx="237.41" cy="38" r="2.25" fill="#FFF" stroke="#000" stroke-width=".25"/><circle cx="244.16" cy="38" r="2.25" fill="#FFF" stroke="#000" stroke-width=".25"/><circle cx="250.91" cy="38" r="2.25" fill="#FFF" stroke="#000" stroke-width=".25"/><circle cx="257.66" cy="38" r="2.25" fill="#FFF" stroke="#000" stroke-width=".25"/><circle cx="264.41" cy="38" r="2.25" fill="#FFF" stroke="#000" stroke-width=".25"/><circle cx="271.16" cy="38" r="2.25" fill="#FFF" stroke="#000" stroke-width=".25"/><circle cx="277.91" cy="38" r="2.25" fill="#FFF" stroke="#000" stroke-width=".25"/></g><g><circle cx="234.035" cy="29" r="2.25" fill="#FFF" stroke="#000" stroke-width=".25"/><circle cx="240.785" cy="29" r="2.25" fill="#FFF" stroke="#000" stroke-width=".25"/><circle cx="247.535" cy="29" r="2.25" fill="#FFF" stroke="#000" stroke-width=".25"/><circle cx="254.285" cy="29" r="2.25" fill="#FFF" stroke="#000" stroke-width=".25"/><circle cx="261.035" cy="29" r="2.25" fill="#FFF" stroke="#000" stroke-width=".25"/><circle cx="267.785" cy="29" r="2.25" fill="#FFF" stroke="#000" stroke-width=".25"/><circle cx="274.535" cy="29" r="2.25" fill="#FFF" stroke="#000" stroke-width=".25"/></g><g><circle cx="237.41" cy="56" r="2.25" fill="#FFF" stroke="#000" stroke-width=".25"/><circle cx="244.16" cy="56" r="2.25" fill="#FFF" stroke="#000" stroke-width=".25"/><circle cx="250.91" cy="56" r="2.25" fill="#FFF" stroke="#000" stroke-width=".25"/><circle cx="257.66" cy="56" r="2.25" fill="#FFF" stroke="#000" stroke-width=".25"/><circle cx="264.41" cy="56" r="2.25" fill="#FFF" stroke="#000" stroke-width=".25"/><circle cx="271.16" cy="56" r="2.25" fill="#FFF" stroke="#000" stroke-width=".25"/></g><g><circle cx="237.41" cy="20" r="2.25" fill="#FFF" stroke="#000" stroke-width=".25"/><circle cx="244.16" cy="20" r="2.25" fill="#FFF" stroke="#000" stroke-width=".25"/><circle cx="250.91" cy="20" r="2.25" fill="#FFF" stroke="#000" stroke-width=".25"/><circle cx="257.66" cy="20" r="2.25" fill="#FFF" stroke="#000" stroke-width=".25"/><circle cx="264.41" cy="20" r="2.25" fill="#FFF" stroke="#000" stroke-width=".25"/><circle cx="271.16" cy="20" r="2.25" fill="#FFF" stroke="#000" stroke-width=".25"/></g><g><circle cx="240.785" cy="11" r="2.25" fill="#FFF" stroke="#000" stroke-width=".25"/><circle cx="247.535" cy="11" r="2.25" fill="#FFF" stroke="#000" stroke-width=".25"/><circle cx="254.285" cy="11" r="2.25" fill="#FFF" stroke="#000" stroke-width=".25"/><circle cx="261.035" cy="11" r="2.25" fill="#FFF" stroke="#000" stroke-width=".25"/><circle cx="267.785" cy="11" r="2.25" fill="#FFF" stroke="#000" stroke-width=".25"/></g></g><g><g><g><line x1="95.188" x2="125.188" y1="123.5" y2="123.5" fill="none" stroke="#000"/><path d="M124.678,123.5l-1.096-1.802l0.062-0.04l2.938,1.166c1.023,0.226,2.047,0.45,3.07,0.676 c-1.023,0.225-2.047,0.45-3.07,0.676l-2.938,1.166l-0.062-0.03L124.678,123.5z"/></g></g></g><g><g><g><line x1="190.188" x2="220.188" y1="117.5" y2="117.5" fill="none" stroke="#000"/><path d="M219.678,117.5l-1.096-1.802l0.062-0.04l2.938,1.166c1.023,0.226,2.047,0.45,3.07,0.676 c-1.023,0.225-2.047,0.45-3.07,0.676l-2.938,1.166l-0.062-0.03L219.678,117.5z"/></g></g></g><g><g><g><line x1="190.188" x2="220.188" y1="135.5" y2="135.5" fill="none" stroke="#000"/><path d="M219.678,135.5l-1.096-1.802l0.062-0.04l2.938,1.166c1.023,0.226,2.047,0.45,3.07,0.676 c-1.023,0.225-2.047,0.45-3.07,0.676l-2.938,1.166l-0.062-0.03L219.678,135.5z"/></g></g></g><g><g><g><line x1="190.188" x2="220.188" y1="129.5" y2="129.5" fill="none" stroke="#000"/><path d="M219.678,129.5l-1.096-1.802l0.062-0.04l2.938,1.166c1.023,0.226,2.047,0.45,3.07,0.676 c-1.023,0.225-2.047,0.45-3.07,0.676l-2.938,1.166l-0.062-0.03L219.678,129.5z"/></g></g></g><g><g><g><line x1="190.188" x2="220.188" y1="123.5" y2="123.5" fill="none" stroke="#000"/><path d="M219.678,123.5l-1.096-1.802l0.062-0.04l2.938,1.166c1.023,0.226,2.047,0.45,3.07,0.676 c-1.023,0.225-2.047,0.45-3.07,0.676l-2.938,1.166l-0.062-0.03L219.678,123.5z"/></g></g></g><g><g><g><line x1="190.188" x2="220.188" y1="111.5" y2="111.5" fill="none" stroke="#000"/><path d="M219.678,111.5l-1.096-1.802l0.062-0.04l2.938,1.166c1.023,0.226,2.047,0.45,3.07,0.676 c-1.023,0.225-2.047,0.45-3.07,0.676l-2.938,1.166l-0.062-0.03L219.678,111.5z"/></g></g></g><rect width="60" height="36" x="130.134" y="105.5" fill="none" stroke="#000"/><text transform="matrix(1 0 0 1 144.6353 120.4604)"><tspan x="0" y="0" font-family="'TimesNewRomanPSMT'" font-size="9">Multiple</tspan><tspan x="-4.248" y="10.799" font-family="'TimesNewRomanPSMT'" font-size="9">Imputation</tspan></text><g><rect width="60" height="36" x="224.285" y="105.5" fill="none" stroke="#000"/><text font-family="'TimesNewRomanPSMT'" font-size="9" transform="matrix(1 0 0 1 244.2881 125.8589)">Stack</text></g><g><g><g><line x1="254.285" x2="254.285" y1="105.5" y2="80.5" fill="none" stroke="#000"/><path d="M254.285,81.009l-1.802,1.096l-0.041-0.062l1.167-2.938c0.226-1.023,0.45-2.047,0.676-3.07 c0.225,1.023,0.45,2.047,0.676,3.07l1.166,2.938l-0.03,0.062L254.285,81.009z"/></g></g></g></svg>